<svg width="30" height="30" viewBox="0 0 30 30" fill="none" xmlns="http://www.w3.org/2000/svg">
<path id="Vector" d="M15 9L23 13V29H7V13L15 9ZM15 9V0M0 29H30M3 29V17H7M27 29V17H23M13 29V23H17V29M15 1H21V5H15M15 19C14.4696 19 13.9609 18.7893 13.5858 18.4142C13.2107 18.0391 13 17.5304 13 17C13 16.4696 13.2107 15.9609 13.5858 15.5858C13.9609 15.2107 14.4696 15 15 15C15.5304 15 16.0391 15.2107 16.4142 15.5858C16.7893 15.9609 17 16.4696 17 17C17 17.5304 16.7893 18.0391 16.4142 18.4142C16.0391 18.7893 15.5304 19 15 19Z" stroke="black"/>
</svg>
